<?xml version="1.0" encoding="UTF-8" standalone="no"?>
<!-- Generator: Adobe Illustrator 15.0.2, SVG Export Plug-In . SVG Version: 6.00 Build 0)  -->

<svg
   xmlns:dc="http://purl.org/dc/elements/1.1/"
   xmlns:cc="http://creativecommons.org/ns#"
   xmlns:rdf="http://www.w3.org/1999/02/22-rdf-syntax-ns#"
   xmlns:svg="http://www.w3.org/2000/svg"
   xmlns="http://www.w3.org/2000/svg"
   xmlns:sodipodi="http://sodipodi.sourceforge.net/DTD/sodipodi-0.dtd"
   xmlns:inkscape="http://www.inkscape.org/namespaces/inkscape"
   version="1.1"
   id="Layer_1"
   x="0px"
   y="0px"
   width="105"
   height="105"
   viewBox="-945 -210.002 105 105"
   enable-background="new -945 -210.002 1045 730.002"
   xml:space="preserve"
   inkscape:version="0.91 r13725"
   sodipodi:docname="Mana2.svg"><metadata
     id="metadata509"><rdf:RDF><cc:Work
         rdf:about=""><dc:format>image/svg+xml</dc:format><dc:type
           rdf:resource="http://purl.org/dc/dcmitype/StillImage" /><dc:title></dc:title></cc:Work></rdf:RDF></metadata><defs
     id="defs507" /><sodipodi:namedview
     pagecolor="#ffffff"
     bordercolor="#666666"
     borderopacity="1"
     objecttolerance="10"
     gridtolerance="10"
     guidetolerance="10"
     inkscape:pageopacity="0"
     inkscape:pageshadow="2"
     inkscape:window-width="1280"
     inkscape:window-height="1009"
     id="namedview505"
     showgrid="false"
     inkscape:zoom="0.45719655"
     inkscape:cx="631.76619"
     inkscape:cy="-433.18382"
     inkscape:window-x="0"
     inkscape:window-y="0"
     inkscape:window-maximized="1"
     inkscape:current-layer="Layer_1"
     fit-margin-top="0"
     fit-margin-left="0"
     fit-margin-right="0"
     fit-margin-bottom="0" /><g
     id="0"><g
       id="g3"><circle
         id="circle5"
         r="50"
         cy="-160"
         cx="-895"
         style="fill:#cac5c0" /></g><path
       id="path7"
       d="m -922,-157.572 c 0,-9.787 2.061,-18.813 6.191,-27.072 5.117,-10.236 12.123,-15.355 21.012,-15.355 8.797,0 15.666,4.359 20.605,13.064 4.127,7.186 6.191,15.537 6.191,25.051 0,9.881 -2.064,18.814 -6.191,26.803 -5.031,10.058 -12.035,15.081 -21.011,15.081 -8.531,0 -15.305,-4.307 -20.336,-12.926 -4.308,-7.361 -6.461,-15.576 -6.461,-24.646 z m 11.309,-4.444 c 0,12.926 1.93,22.984 5.795,30.168 2.691,5.025 6.146,7.541 10.367,7.541 10.146,0 15.221,-10.506 15.221,-31.518 0,-9.244 -0.809,-17.059 -2.422,-23.434 -2.785,-10.504 -7.498,-15.76 -14.145,-15.76 -9.879,0 -14.816,10.15 -14.816,30.443 l 0,2.56 z"
       inkscape:connector-curvature="0"
       style="fill:#0d0f0f" /></g><g
     id="1"
     transform="translate(-100,0)"><g
       id="g9"><circle
         id="circle11"
         r="50"
         cy="-160.002"
         cx="-790"
         style="fill:#cac5c0" /></g><path
       id="path13"
       d="m -784.315,-199.999 0,64.108 c 0,7.671 3.226,11.504 9.687,11.504 l 1.684,0 0,4.388 -34.111,0 0,-4.388 2.141,0 c 6.247,0 9.369,-3.833 9.369,-11.504 l 0,-42.054 c 0,-7.758 -2.697,-11.643 -8.081,-11.643 l -3.429,0 0,-4.247 1.237,0 c 6.66,0 12.691,-2.057 18.08,-6.165 l 3.423,0.001 0,0 z"
       inkscape:connector-curvature="0"
       style="fill:#0d0f0f" /></g><g
     id="2"
     transform="translate(-205,0)"><g
       id="g15"><circle
         id="circle17"
         r="50"
         cy="-160.002"
         cx="-685"
         style="fill:#cac5c0" /></g><path
       id="path19"
       d="m -657.558,-139.897 -5.896,19.898 -48.991,0 0,-4.254 c 2.38,-2.652 7.595,-8.001 15.646,-16.053 4.849,-4.852 9.649,-9.972 14.407,-15.371 2.378,-2.651 4.21,-4.942 5.487,-6.862 2.836,-4.114 4.255,-8.32 4.255,-12.624 0,-4.204 -1.301,-7.912 -3.908,-11.112 -2.607,-3.204 -5.97,-4.808 -10.09,-4.808 -8.871,0 -15.823,5.998 -20.854,17.98 l -4.395,-1.647 c 5.947,-16.829 15.321,-25.249 28.131,-25.249 6.313,0 11.687,2.149 16.124,6.448 4.439,4.3 6.656,9.604 6.656,15.92 0,8.052 -4.617,15.918 -13.858,23.601 l -9.604,7.956 c -6.131,5.127 -11.212,9.929 -15.231,14.412 -0.28,0.273 -0.826,0.916 -1.647,1.921 l 25.521,0 c 3.932,0 6.907,-0.776 8.918,-2.335 1.735,-1.372 3.434,-3.98 5.08,-7.821 l 4.249,0 z"
       inkscape:connector-curvature="0"
       style="fill:#0d0f0f" /></g><g
     id="3"
     transform="translate(-310,0)"><g
       id="g21"><circle
         id="circle23"
         r="50"
         cy="-160.002"
         cx="-580"
         style="fill:#cac5c0" /></g><path
       id="path25"
       d="m -590.439,-157.438 -2.018,-3.771 1.337,-0.807 c 5.174,-3.145 9.903,-6.33 14.189,-9.563 4.284,-3.232 6.427,-6.915 6.427,-11.048 0,-2.778 -1.029,-5.112 -3.085,-6.998 -2.061,-1.892 -4.472,-2.834 -7.244,-2.834 -6.439,0 -13.234,4.001 -20.392,11.991 l -3.354,-2.559 c 7.453,-11.316 16.566,-16.974 27.341,-16.974 4.757,0 8.795,1.168 12.122,3.503 3.771,2.607 5.655,6.153 5.655,10.642 0,3.229 -1.349,6.374 -4.039,9.426 -1.528,1.798 -4.226,4.132 -8.083,7.004 l -1.616,1.213 c 0.718,-0.089 1.572,-0.134 2.56,-0.134 4.937,0 8.998,1.887 12.188,5.657 3.188,3.771 4.783,8.17 4.783,13.196 0,8.532 -3.595,15.667 -10.774,21.416 -6.647,5.387 -14.325,8.077 -23.032,8.077 -7.991,0 -14.276,-1.748 -18.858,-5.249 l 2.429,-3.371 c 5.387,2.608 10.279,3.907 14.681,3.907 6.373,0 12.051,-2.109 17.032,-6.33 4.988,-4.22 7.475,-9.469 7.475,-15.755 0,-4.132 -1.255,-7.655 -3.77,-10.576 -2.516,-2.915 -5.793,-4.374 -9.832,-4.374 -3.684,0.002 -7.723,1.437 -12.122,4.311 z"
       inkscape:connector-curvature="0"
       style="fill:#0d0f0f" /></g><g
     id="4"
     transform="translate(-415,0)"><g
       id="g27"><circle
         id="circle29"
         r="50"
         cy="-160.002"
         cx="-475"
         style="fill:#cac5c0" /></g><path
       id="path31"
       d="m -460.73,-142.641 0,6.723 c 0,7.684 2.695,11.525 8.094,11.525 l 2.33,0 0,4.394 -32.658,0 0,-4.394 2.607,0 c 5.303,0 7.961,-3.798 7.961,-11.392 l 0,-6.856 -32.795,0 0,-6.861 34.578,-50.497 9.883,0 0,51.592 0.82,0 c 3.383,0 5.852,-2.608 7.408,-7.816 l 4.115,0 -1.92,13.583 -10.423,-0.001 0,0 z m -11.666,-5.766 0,-41.458 -27.893,41.458 27.893,0 z"
       inkscape:connector-curvature="0"
       style="fill:#0d0f0f" /></g><g
     id="5"
     transform="translate(-520,0)"><g
       id="g33"><circle
         id="circle35"
         r="50"
         cy="-160.002"
         cx="-370"
         style="fill:#cac5c0" /></g><path
       id="path37"
       d="m -385.043,-198.648 28.941,0 c 3.754,0 5.988,-0.45 6.703,-1.352 l 4.156,0 -2.422,10.925 -35.314,0 -3.408,15.789 c 5.127,-2.07 9.668,-3.104 13.625,-3.104 7.729,0 14.25,2.587 19.559,7.758 5.305,5.171 7.961,11.622 7.961,19.357 0,8.996 -3.465,16.237 -10.394,21.722 -6.385,5.039 -14.162,7.553 -23.338,7.553 -5.395,0 -10.66,-0.808 -15.785,-2.426 l 1.617,-4.046 c 4.32,1.169 8.141,1.751 11.469,1.751 6.654,0 12.477,-2.18 17.473,-6.544 4.99,-4.358 7.488,-9.826 7.488,-16.392 0,-5.665 -1.844,-10.32 -5.533,-13.959 -3.689,-3.646 -8.365,-5.468 -14.033,-5.468 -5.213,0 -10.07,1.8 -14.568,5.396 l -2.701,-0.538 8.504,-36.422 z"
       inkscape:connector-curvature="0"
       style="fill:#0d0f0f" /></g><g
     id="6"
     transform="translate(-625,0)"><g
       id="g39"><circle
         id="circle41"
         r="50"
         cy="-160.002"
         cx="-265"
         style="fill:#cac5c0" /></g><path
       id="path43"
       d="m -278.42,-165.325 c 5.934,-5.577 11.91,-8.364 17.939,-8.364 6.564,0 11.828,2.606 15.787,7.821 3.682,4.77 5.529,10.521 5.529,17.27 0,7.376 -2.158,13.849 -6.475,19.425 -4.768,6.114 -10.703,9.174 -17.807,9.174 -8.547,0 -15.381,-3.69 -20.504,-11.063 -4.59,-6.477 -6.883,-14.167 -6.883,-23.071 0,-9.44 2.607,-18.141 7.824,-26.101 5.213,-7.958 12.184,-13.602 20.906,-16.928 4.947,-1.888 10.168,-2.839 15.65,-2.839 l 0,4.184 c -11.691,0.631 -20.414,5.308 -26.174,14.031 -2.958,4.501 -4.895,9.983 -5.792,16.461 z m -0.812,8.092 c -0.086,1.618 -0.133,3.238 -0.133,4.857 0,6.203 1.078,11.96 3.236,17.269 2.785,6.922 6.883,10.385 12.279,10.385 4.674,0 8.18,-2.381 10.52,-7.151 1.797,-3.684 2.697,-8.135 2.697,-13.355 0,-5.571 -0.857,-10.342 -2.563,-14.299 -2.34,-5.396 -5.936,-8.092 -10.793,-8.092 -5.933,-0.001 -11.017,3.464 -15.243,10.386 z"
       inkscape:connector-curvature="0"
       style="fill:#0d0f0f" /></g><g
     id="7"
     transform="translate(-730,0)"><g
       id="g45"><circle
         id="circle47"
         r="50"
         cy="-160.002"
         cx="-160"
         style="fill:#cac5c0" /></g><path
       id="path49"
       d="m -156.506,-120 -11.643,0 0,-1.238 c 0,-7.396 2.328,-16.659 6.98,-27.808 7.035,-16.799 13.52,-29.673 19.453,-38.624 l 0.822,-1.232 -27.256,0 c -3.93,0 -6.92,0.819 -8.975,2.463 -2.059,1.645 -3.582,4.387 -4.586,8.222 l -4.52,0 4.926,-21.782 2.881,0 c 1.734,0.914 4.742,1.371 9.041,1.371 l 35.609,0 0,6.165 c -1.275,1.829 -2.918,4.75 -4.926,8.768 -3.838,7.485 -7.352,16.208 -10.553,26.163 -4.743,14.702 -7.163,27.209 -7.253,37.532 z"
       inkscape:connector-curvature="0"
       style="fill:#0d0f0f" /></g><g
     id="8"
     transform="translate(-835,0)"><g
       id="g51"><circle
         id="circle53"
         r="50"
         cy="-160.002"
         cx="-55"
         style="fill:#cac5c0" /></g><path
       id="path55"
       d="m -64.035,-160.537 -1.746,-1.211 c -5.119,-3.502 -8.492,-6.33 -10.107,-8.489 -2.066,-2.691 -3.096,-5.83 -3.096,-9.426 0,-6.105 2.557,-11.087 7.678,-14.949 4.758,-3.59 10.281,-5.388 16.568,-5.388 5.922,0 11.18,1.573 15.756,4.713 5.203,3.503 7.813,8.127 7.813,13.876 0,7.004 -4.898,12.66 -14.682,16.967 11.131,5.388 16.699,12.884 16.699,22.492 0,6.914 -2.646,12.389 -7.949,16.434 -4.753,3.682 -10.729,5.518 -17.909,5.518 -6.734,0 -12.525,-1.703 -17.377,-5.119 -5.568,-3.856 -8.348,-8.976 -8.348,-15.349 0,-6.373 2.963,-11.63 8.889,-15.761 1.616,-1.074 4.223,-2.51 7.811,-4.308 z m 4.572,1.912 c -8.08,3.677 -12.111,9.466 -12.111,17.361 0,5.113 1.635,9.218 4.916,12.314 3.277,3.097 7.475,4.643 12.594,4.643 4.574,0 8.461,-1.232 11.646,-3.695 3.186,-2.464 4.781,-5.891 4.781,-10.28 0,-6.626 -4.367,-12.001 -13.098,-16.122 l -8.728,-4.221 z m 9.031,-7.973 c 7.088,-3.141 10.641,-7.854 10.641,-14.139 0,-4.313 -1.506,-7.766 -4.51,-10.375 -3.012,-2.603 -6.715,-3.906 -11.113,-3.906 -3.684,0 -6.869,0.991 -9.563,2.964 -2.965,2.154 -4.443,5.03 -4.443,8.62 0,4.4 2.063,7.948 6.195,10.643 0.805,0.537 4.396,2.286 10.775,5.25 l 2.018,0.943 z"
       inkscape:connector-curvature="0"
       style="fill:#0d0f0f" /></g><g
     id="9"
     transform="translate(-940,0)"><g
       id="g57"><circle
         id="circle59"
         r="50"
         cy="-160.002"
         cx="50"
         style="fill:#cac5c0" /></g><path
       id="path61"
       d="m 63.402,-154.476 c -5.922,5.567 -11.898,8.353 -17.91,8.353 -6.555,0 -11.809,-2.604 -15.758,-7.814 -3.684,-4.758 -5.523,-10.507 -5.523,-17.241 0,-7.272 2.152,-13.777 6.461,-19.526 4.672,-6.199 10.555,-9.296 17.648,-9.296 8.622,0 15.489,3.728 20.605,11.181 4.582,6.554 6.867,14.319 6.867,23.302 0,12.746 -4.224,23.498 -12.655,32.257 -8.441,8.752 -18.993,13.174 -31.653,13.261 l 0,-4.175 c 3.859,-0.176 6.953,-0.626 9.297,-1.344 12.922,-3.951 20.469,-13.601 22.621,-28.958 z m 0.813,-8.082 c 0.086,-1.706 0.129,-3.322 0.129,-4.846 0,-6.285 -1.074,-12.034 -3.23,-17.24 -2.875,-6.916 -7,-10.374 -12.386,-10.374 -4.676,0 -8.125,2.385 -10.375,7.141 -1.797,3.683 -2.691,8.126 -2.691,13.334 0,5.566 0.852,10.324 2.559,14.275 2.332,5.387 5.926,8.083 10.777,8.083 5.92,0 10.99,-3.458 15.217,-10.373 z"
       inkscape:connector-curvature="0"
       style="fill:#0d0f0f" /></g><g
     id="19"
     transform="translate(-940,-100)"><g
       id="g63"><circle
         id="circle65"
         r="50"
         cy="-55.001999"
         cx="50"
         style="fill:#cac5c0" /></g><path
       id="path67"
       d="m 37.162,-86.426 0,50.205 c 0,5.962 2.51,8.939 7.537,8.939 l 1.277,0 0,3.451 -26.824,0 0,-3.451 1.787,0 c 5.027,0 7.537,-2.978 7.537,-8.939 l 0,-32.959 c 0,-6.045 -2.131,-9.07 -6.389,-9.07 l -2.682,0 0,-3.446 1.023,0 c 5.193,0 9.918,-1.575 14.18,-4.729 l 2.554,-0.001 0,0 z m 40.75,35.771 c -4.684,4.429 -9.365,6.643 -14.049,6.643 -5.109,0 -9.242,-2.089 -12.393,-6.263 -2.812,-3.659 -4.216,-8.13 -4.216,-13.41 0,-5.708 1.658,-10.817 4.979,-15.329 3.746,-4.854 8.39,-7.281 13.925,-7.281 6.728,0 12.049,2.895 15.967,8.686 3.66,5.197 5.494,11.284 5.494,18.265 0,10.053 -3.3,18.504 -9.899,25.359 -6.602,6.855 -14.881,10.327 -24.846,10.41 l 0,-3.321 c 3.066,-0.171 5.494,-0.515 7.281,-1.023 10.138,-3.068 16.052,-10.646 17.757,-22.736 z m 0.641,-6.264 c 0.082,-1.356 0.129,-2.635 0.129,-3.83 0,-4.938 -0.852,-9.45 -2.557,-13.54 -2.299,-5.364 -5.535,-8.047 -9.711,-8.047 -3.658,0 -6.346,1.83 -8.045,5.494 -1.451,2.979 -2.174,6.472 -2.174,10.474 0,4.34 0.682,8.093 2.043,11.237 1.789,4.174 4.602,6.264 8.432,6.264 4.6,0 8.56,-2.682 11.883,-8.052 z"
       inkscape:connector-curvature="0"
       style="fill:#0d0f0f" /></g><g
     id="18"
     transform="translate(-835,-100)"><g
       id="g69"><circle
         id="circle71"
         r="50"
         cy="-55.001999"
         cx="-55"
         style="fill:#cac5c0" /></g><path
       id="path73"
       d="m -69.025,-85.786 0,49.436 c 0,5.879 2.428,8.815 7.281,8.815 l 1.279,0 0,3.321 -26.316,0 0,-3.321 1.664,0 c 5.021,0 7.537,-2.937 7.537,-8.815 l 0,-32.444 c 0,-5.962 -2.133,-8.939 -6.389,-8.939 l -2.557,0 0,-3.322 1.023,0 c 5.109,0 9.709,-1.574 13.795,-4.729 l 2.683,0 0,-0.002 z m 22.609,30.401 -1.277,-1.019 c -4.002,-2.724 -6.643,-4.896 -7.916,-6.513 -1.533,-2.131 -2.303,-4.6 -2.303,-7.412 0,-4.683 2,-8.514 6.002,-11.497 3.576,-2.807 7.84,-4.216 12.777,-4.216 4.6,0 8.686,1.195 12.262,3.576 3.918,2.729 5.879,6.347 5.879,10.858 0,5.452 -3.748,9.839 -11.244,13.16 8.604,4.174 12.902,10.006 12.902,17.501 0,5.364 -2.086,9.621 -6.26,12.771 -3.574,2.813 -8.133,4.215 -13.67,4.215 -5.279,0 -9.791,-1.32 -13.539,-3.961 -4.34,-2.978 -6.514,-6.938 -6.514,-11.876 0,-5.026 2.34,-9.112 7.027,-12.268 1.192,-0.844 3.151,-1.952 5.874,-3.319 z m 3.576,1.409 c -6.215,2.895 -9.324,7.406 -9.324,13.54 0,3.919 1.279,7.09 3.83,9.517 2.559,2.428 5.75,3.639 9.586,3.639 3.576,0 6.596,-0.956 9.07,-2.874 2.469,-1.913 3.701,-4.574 3.701,-7.984 0,-5.192 -3.322,-9.366 -9.965,-12.516 l -6.898,-3.322 z m 7.027,-6.133 c 5.537,-2.469 8.301,-6.128 8.301,-10.982 0,-3.321 -1.168,-6.004 -3.508,-8.052 -2.344,-2.043 -5.219,-3.062 -8.623,-3.062 -2.813,0 -5.322,0.806 -7.537,2.422 -2.219,1.622 -3.32,3.837 -3.32,6.644 0,3.409 1.574,6.133 4.725,8.176 0.68,0.426 3.492,1.788 8.43,4.091 l 1.532,0.763 z"
       inkscape:connector-curvature="0"
       style="fill:#0d0f0f" /></g><g
     id="17"
     transform="translate(-730,-100)"><g
       id="g75"><circle
         id="circle77"
         r="50"
         cy="-55.001999"
         cx="-160"
         style="fill:#cac5c0" /></g><path
       id="path79"
       d="m -176.289,-85.848 0,49.307 c 0,5.879 2.43,8.814 7.285,8.814 l 1.148,0 0,3.322 -26.188,0 0,-3.322 1.789,0 c 4.938,0 7.41,-2.936 7.41,-8.814 l 0,-32.318 c 0,-5.957 -2.129,-8.941 -6.387,-8.941 l -2.559,0 0,-3.32 1.023,0 c 5.109,0 9.711,-1.576 13.797,-4.727 l 2.682,-0.001 0,0 z m 32.707,61.825 -8.945,0 0,-1.02 c 0,-5.707 1.789,-12.902 5.363,-21.586 5.453,-12.949 10.48,-22.912 15.074,-29.893 l 0.516,-0.895 -20.953,0 c -3.066,0 -5.387,0.639 -6.961,1.912 -1.574,1.279 -2.793,3.41 -3.645,6.389 l -3.445,0 3.832,-16.861 2.301,0 c 1.273,0.598 3.578,0.895 6.898,0.895 l 27.59,0 0,4.855 c -1.02,1.449 -2.297,3.746 -3.832,6.896 -2.984,5.795 -5.707,12.521 -8.176,20.182 -3.664,11.415 -5.535,21.126 -5.617,29.126 z"
       inkscape:connector-curvature="0"
       style="fill:#0d0f0f" /></g><g
     id="16"
     transform="translate(-625,-100)"><g
       id="g81"><circle
         id="circle83"
         r="50"
         cy="-55.001999"
         cx="-265"
         style="fill:#cac5c0" /></g><path
       id="path85"
       d="m -280.691,-86.678 0,50.838 c 0,6.047 2.516,9.07 7.537,9.07 l 1.279,0 0,3.447 -27.082,0 0,-3.447 1.789,0 c 5.109,0 7.668,-3.023 7.668,-9.07 l 0,-33.344 c 0,-6.127 -2.174,-9.193 -6.52,-9.193 l -2.682,0 0,-3.451 1.023,0 c 5.281,0 10.049,-1.617 14.305,-4.85 l 2.683,0 z m 20.058,27.459 c 4.684,-4.422 9.408,-6.643 14.18,-6.643 5.109,0 9.236,2.049 12.391,6.135 2.895,3.746 4.34,8.305 4.34,13.668 0,5.791 -1.703,10.859 -5.109,15.199 -3.746,4.855 -8.43,7.281 -14.049,7.281 -6.643,0 -12.006,-2.895 -16.098,-8.684 -3.576,-5.109 -5.365,-11.156 -5.365,-18.141 0,-7.49 2.043,-14.371 6.135,-20.631 4.084,-6.258 9.58,-10.707 16.477,-13.348 3.83,-1.451 7.922,-2.174 12.262,-2.174 l 0,3.322 c -9.193,0.428 -16.051,4.092 -20.563,10.988 -2.304,3.579 -3.837,7.919 -4.601,13.028 z m -0.64,6.264 c -0.082,1.273 -0.129,2.553 -0.129,3.83 0,4.938 0.852,9.496 2.559,13.672 2.213,5.445 5.445,8.17 9.707,8.17 3.66,0 6.43,-1.871 8.301,-5.619 1.363,-2.895 2.043,-6.43 2.043,-10.604 0,-4.34 -0.633,-8.088 -1.912,-11.236 -1.877,-4.262 -4.729,-6.389 -8.561,-6.389 -4.684,0 -8.686,2.725 -12.008,8.176 z"
       inkscape:connector-curvature="0"
       style="fill:#0d0f0f" /></g><g
     id="15"
     transform="translate(-520,-100.002)"><g
       id="g87"><path
         id="path89"
         d="M -320,-55.002 C -320,-27.387 -342.387,-5 -370.002,-5 -397.615,-5 -420,-27.387 -420,-55.002 c 0,-27.613 22.385,-49.998 49.998,-49.998 27.615,0 50.002,22.385 50.002,49.998 z"
         inkscape:connector-curvature="0"
         style="fill:#cac5c0" /></g><path
       id="path91"
       d="m -385.33,-86.871 0,50.84 c 0,6.045 2.516,9.07 7.537,9.07 l 1.277,0 0,3.445 -27.078,0 0,-3.445 1.787,0 c 5.109,0 7.666,-3.025 7.666,-9.07 l 0,-33.344 c 0,-6.129 -2.172,-9.195 -6.518,-9.195 l -2.682,0 0,-3.449 1.023,0 c 5.281,0 10.047,-1.617 14.305,-4.852 l 2.683,0 z m 17.885,1.273 23.121,0 c 2.984,0 4.771,-0.336 5.369,-1.02 l 3.322,0 -1.918,8.688 -28.229,0 -2.682,12.516 c 3.998,-1.617 7.578,-2.428 10.729,-2.428 6.133,0 11.305,2.049 15.52,6.135 4.215,4.084 6.32,9.193 6.32,15.328 0,7.152 -2.723,12.898 -8.17,17.246 -5.115,4 -11.291,6.004 -18.525,6.004 -4.258,0 -8.43,-0.641 -12.516,-1.918 l 1.273,-3.191 c 3.404,0.934 6.43,1.402 9.07,1.402 5.281,0 9.902,-1.742 13.861,-5.234 3.961,-3.492 5.936,-7.84 5.936,-13.031 0,-4.512 -1.465,-8.219 -4.402,-11.113 -2.941,-2.895 -6.621,-4.344 -11.051,-4.344 -4.172,0 -8.045,1.449 -11.625,4.344 l -2.168,-0.383 6.765,-29.001 z"
       inkscape:connector-curvature="0"
       style="fill:#0d0f0f" /></g><g
     id="14"
     transform="translate(-415,-100)"><g
       id="g93"><circle
         id="circle95"
         r="50"
         cy="-55.001999"
         cx="-475"
         style="fill:#cac5c0" /></g><path
       id="path97"
       d="m -488.692,-85.529 0,49.053 c 0,5.789 2.427,8.684 7.276,8.684 l 1.154,0 0,3.322 -26.062,0 0,-3.322 1.663,0 c 4.938,0 7.407,-2.895 7.407,-8.684 l 0,-32.191 c 0,-5.879 -2.09,-8.816 -6.259,-8.816 l -2.557,0 0,-3.32 1.023,0 c 5.021,0 9.579,-1.574 13.665,-4.725 l 2.69,-10e-4 0,0 z m 43.047,43.687 0,5.109 c 0,5.707 1.996,8.561 6.003,8.561 l 1.658,0 0,3.316 -24.398,0 0,-3.316 1.918,0 c 4.003,0 6.004,-2.813 6.004,-8.43 l 0,-5.24 -24.528,0 0,-5.109 25.932,-37.814 7.412,0 0,38.578 0.639,0 c 2.47,0 4.299,-1.953 5.489,-5.873 l 3.066,0 -1.533,10.219 -7.662,-10e-4 0,0 z m -6.773,-5.109 0,-32.189 -21.716,32.189 21.716,0 z"
       inkscape:connector-curvature="0"
       style="fill:#0d0f0f" /></g><g
     id="13"
     transform="translate(-310,-100)"><g
       id="g99"><circle
         id="circle101"
         r="50"
         cy="-55.001999"
         cx="-580"
         style="fill:#cac5c0" /></g><path
       id="path103"
       d="m -592.033,-85.211 0,48.543 c 0,5.707 2.428,8.555 7.282,8.555 l 1.149,0 0,3.322 -25.802,0 0,-3.322 1.663,0 c 4.938,0 7.406,-2.848 7.406,-8.555 l 0,-31.811 c 0,-5.873 -2.089,-8.814 -6.258,-8.814 l -2.558,0 0,-3.316 1.024,0 c 5.021,0 9.538,-1.535 13.54,-4.602 l 2.554,0 z m 21.717,32.191 -1.533,-2.813 1.153,-0.641 c 3.831,-2.379 7.387,-4.785 10.666,-7.215 3.274,-2.426 4.917,-5.17 4.917,-8.238 0,-2.129 -0.811,-3.898 -2.427,-5.301 -1.617,-1.408 -3.41,-2.109 -5.364,-2.109 -4.943,0 -10.136,2.982 -15.588,8.945 l -2.553,-1.918 c 5.619,-8.516 12.517,-12.777 20.692,-12.777 3.576,0 6.602,0.895 9.07,2.684 2.896,1.965 4.346,4.645 4.346,8.051 0,2.387 -1.024,4.725 -3.067,7.021 -1.195,1.279 -3.238,3.025 -6.133,5.24 l -1.149,1.023 c 0.51,-0.082 1.149,-0.129 1.918,-0.129 3.748,0 6.81,1.43 9.195,4.277 2.386,2.852 3.576,6.113 3.576,9.771 0,6.475 -2.724,11.84 -8.177,16.096 -4.938,4.086 -10.687,6.135 -17.24,6.135 -6.051,0 -10.775,-1.279 -14.18,-3.836 l 1.788,-2.553 c 4.002,1.871 7.661,2.813 10.982,2.813 4.771,0 9.029,-1.574 12.776,-4.73 3.748,-3.148 5.619,-7.068 5.619,-11.752 0,-3.15 -0.936,-5.83 -2.807,-8.045 -1.877,-2.215 -4.346,-3.322 -7.412,-3.322 -2.722,0.001 -5.747,1.109 -9.068,3.323 z"
       inkscape:connector-curvature="0"
       style="fill:#0d0f0f" /></g><g
     id="12"
     transform="translate(-205,-100)"><g
       id="g105"><circle
         id="circle107"
         r="50"
         cy="-55.001999"
         cx="-685"
         style="fill:#cac5c0" /></g><path
       id="path109"
       d="m -699.37,-85.785 0,49.18 c 0,5.875 2.428,8.816 7.277,8.816 l 1.278,0 0,3.445 -26.185,0 0,-3.445 1.533,0 c 4.938,0 7.406,-2.941 7.406,-8.816 l 0,-32.32 c 0,-5.955 -2.043,-8.939 -6.128,-8.939 l -2.682,0 0,-3.322 1.019,0 c 5.109,0 9.709,-1.531 13.795,-4.598 l 2.687,-10e-4 0,0 z m 50.965,46.367 -4.471,15.203 -37.429,0 0,-3.32 c 1.793,-2.043 5.749,-6.133 11.882,-12.266 3.659,-3.66 7.324,-7.578 10.988,-11.748 1.788,-2.049 3.191,-3.748 4.215,-5.115 2.126,-3.232 3.191,-6.465 3.191,-9.703 0,-3.238 -0.981,-6.092 -2.938,-8.561 -1.959,-2.471 -4.559,-3.705 -7.791,-3.705 -6.731,0 -12.012,4.598 -15.843,13.799 l -3.321,-1.279 c 4.601,-12.775 11.752,-19.164 21.461,-19.164 4.767,0 8.857,1.621 12.262,4.855 3.404,3.238 5.109,7.281 5.109,12.137 0,6.215 -3.534,12.262 -10.598,18.141 l -7.282,5.873 c -4.688,3.92 -8.561,7.625 -11.628,11.111 -0.254,0.262 -0.681,0.729 -1.273,1.41 l 19.544,0 c 2.979,0 5.192,-0.557 6.643,-1.664 1.445,-1.102 2.766,-3.107 3.956,-6.004 l 3.323,0 z"
       inkscape:connector-curvature="0"
       style="fill:#0d0f0f" /></g><g
     id="11"
     transform="translate(-100,-100)"><g
       id="g111"><circle
         id="circle113"
         r="50"
         cy="-55.001999"
         cx="-790"
         style="fill:#cac5c0" /></g><path
       id="path115"
       d="m -800.169,-86.68 0,50.84 c 0,6.049 2.516,9.07 7.536,9.07 l 1.279,0 0,3.449 -27.081,0 0,-3.449 1.788,0 c 5.109,0 7.667,-3.021 7.667,-9.07 l 0,-33.34 c 0,-6.133 -2.173,-9.195 -6.518,-9.195 l -2.683,0 0,-3.449 1.024,0 c 5.28,0 10.047,-1.617 14.304,-4.855 l 2.684,-0.001 0,0 z m 32.449,0 0,50.84 c 0,6.049 2.511,9.07 7.537,9.07 l 1.278,0 0,3.449 -27.086,0 0,-3.449 1.788,0 c 5.115,0 7.667,-3.021 7.667,-9.07 l 0,-33.34 c 0,-6.133 -2.173,-9.195 -6.513,-9.195 l -2.682,0 0,-3.449 1.019,0 c 5.28,0 10.047,-1.617 14.31,-4.855 l 2.682,-0.001 0,0 z"
       inkscape:connector-curvature="0"
       style="fill:#0d0f0f" /></g><g
     id="10"
     transform="translate(0,-100)"><g
       id="g117"><circle
         id="circle119"
         r="50"
         cy="-55.001999"
         cx="-895"
         style="fill:#cac5c0" /></g><path
       id="path121"
       d="m -909.694,-86.367 0,50.439 c 0,5.998 2.567,8.998 7.693,8.998 l 1.305,0 0,3.42 -26.866,0 0,-3.42 1.727,0 c 4.931,0 7.4,-3 7.4,-8.998 l 0,-33.08 c 0,-6.08 -2.155,-9.123 -6.467,-9.123 l -2.66,0 0,-3.424 1.016,0 c 5.238,0 9.969,-1.604 14.191,-4.813 l 2.661,10e-4 0,0 z m 9.76,33.328 c 0,-7.857 1.646,-15.082 4.94,-21.668 4.142,-8.193 9.805,-12.293 16.982,-12.293 6.931,0 12.422,3.508 16.476,10.516 3.296,5.748 4.945,12.381 4.945,19.898 0,7.859 -1.648,15.039 -4.945,21.545 -4.141,8.029 -9.757,12.041 -16.853,12.041 -6.842,0 -12.293,-3.465 -16.352,-10.395 -3.464,-5.828 -5.193,-12.376 -5.193,-19.644 z m 9.122,-3.676 c 0,6.68 0.718,12.676 2.156,17.996 2.197,8.195 5.785,12.295 10.771,12.295 8.111,0 12.165,-8.447 12.165,-25.346 0,-20.869 -4.394,-31.301 -13.182,-31.301 -7.941,0 -11.912,8.105 -11.912,24.328 l 0.002,2.028 0,0 z"
       inkscape:connector-curvature="0"
       style="fill:#0d0f0f" /></g><g
     id="20"
     transform="translate(0,-205)"><g
       id="g123"><circle
         id="circle125"
         r="50"
         cy="49.998001"
         cx="-895"
         style="fill:#cac5c0" /></g><path
       id="path127"
       d="m -891.756,63.266 -4.471,14.945 -36.791,0 0,-3.068 c 1.789,-2.041 5.75,-6.086 11.883,-12.131 3.576,-3.66 7.152,-7.496 10.729,-11.498 1.871,-2.042 3.238,-3.789 4.09,-5.24 2.209,-3.066 3.316,-6.258 3.316,-9.578 0,-3.066 -0.998,-5.813 -2.998,-8.238 -2.002,-2.428 -4.539,-3.639 -7.6,-3.639 -6.643,0 -11.84,4.512 -15.588,13.541 l -3.447,-1.279 c 4.512,-12.689 11.582,-19.033 21.203,-19.033 4.771,0 8.836,1.615 12.199,4.854 3.367,3.238 5.047,7.24 5.047,12.006 0,6.051 -3.535,11.965 -10.604,17.756 l -7.152,6.004 c -4.6,3.92 -8.389,7.537 -11.367,10.857 -0.256,0.172 -0.682,0.682 -1.279,1.535 l 19.164,0 c 2.979,0 5.234,-0.642 6.768,-1.918 1.279,-1.021 2.557,-2.98 3.83,-5.875 l 3.068,0 0,-0.001 z m -0.51,-13.414 c 0,-7.408 1.533,-14.264 4.6,-20.563 4.002,-7.834 9.408,-11.754 16.223,-11.754 6.555,0 11.793,3.363 15.713,10.09 3.061,5.453 4.594,11.752 4.594,18.904 0,7.495 -1.533,14.311 -4.594,20.444 -4.008,7.659 -9.373,11.491 -16.098,11.491 -6.471,0 -11.67,-3.274 -15.584,-9.836 -3.238,-5.534 -4.854,-11.792 -4.854,-18.776 z m 8.686,-3.448 c 0,6.389 0.68,12.096 2.043,17.116 2.041,7.84 5.451,11.754 10.219,11.754 7.748,0 11.627,-8.047 11.627,-24.146 0,-19.928 -4.217,-29.891 -12.646,-29.891 -7.496,0 -11.242,7.748 -11.242,23.248 l -0.001,1.919 0,0 z"
       inkscape:connector-curvature="0"
       style="fill:#0d0f0f" /></g><g
     id="G"
     transform="translate(-835,-205.002)"><g
       id="g129"><path
         id="path131"
         d="M -5,49.998 C -5,77.613 -27.385,100 -55.002,100 -82.615,100 -105,77.613 -105,49.998 -105,22.385 -82.615,0 -55.002,0 -27.385,0 -5,22.385 -5,49.998 Z"
         inkscape:connector-curvature="0"
         style="fill:#a3c095" /></g><path
       id="path133"
       d="m -11.238,56.225 c 0,1.668 -0.645,3.164 -1.936,4.498 -1.289,1.332 -2.77,1.998 -4.436,1.998 -2.662,0 -4.623,-1.25 -5.869,-3.748 l -5.871,-0.25 c -1.252,0 -3.709,0.543 -7.371,1.625 -3.914,1.082 -6.164,1.957 -6.746,2.623 -0.916,0.998 -1.664,3.332 -2.248,6.996 -0.502,2.998 -0.748,5.205 -0.748,6.621 0,2.246 0.352,3.893 1.061,4.934 0.709,1.041 2.166,1.916 4.371,2.623 2.205,0.707 3.561,1.104 4.061,1.187 0.332,0 0.873,-0.041 1.625,-0.125 l 1.498,0 c 1.08,0 2.205,0.17 3.373,0.5 1.666,0.5 2.375,1.166 2.125,2 -1.168,-0.166 -3.207,0.084 -6.121,0.75 l 3.496,1.748 c 0,1 -1.416,1.498 -4.246,1.498 -0.752,0 -1.771,-0.166 -3.063,-0.498 -1.291,-0.336 -2.145,-0.5 -2.559,-0.5 l -1.625,0 c -0.082,0.832 -0.334,2.08 -0.75,3.746 -1.418,-0.084 -3.08,-0.918 -4.996,-2.498 -1.918,-1.58 -3.123,-2.373 -3.621,-2.373 -0.502,0 -1.211,0.793 -2.125,2.373 -0.918,1.58 -1.375,2.664 -1.375,3.248 -1.082,-0.584 -1.996,-1.668 -2.75,-3.248 -0.332,-1.084 -0.707,-2.166 -1.121,-3.248 -0.832,0.084 -2.375,1.834 -4.621,5.248 l -0.627,0 c -0.166,-0.252 -0.795,-2 -1.873,-5.248 -2.582,-0.832 -4.996,-1.248 -7.246,-1.248 -1.082,0 -2.748,0.25 -4.996,0.748 l -3.496,-0.248 c 0.498,-0.5 1.955,-1.457 4.371,-2.873 2.83,-1.666 4.996,-2.5 6.496,-2.5 0.246,0 0.578,0.043 1,0.125 0.414,0.086 0.75,0.125 1,0.125 0.578,0 1.518,-0.312 2.809,-0.938 1.291,-0.623 2.039,-1.186 2.246,-1.684 0.211,-0.504 0.316,-1.793 0.316,-3.875 0,-4.746 -1.25,-8.285 -3.75,-10.617 -2.168,-2.082 -5.746,-3.58 -10.744,-4.498 -1.332,4.746 -5.08,7.123 -11.24,7.123 -2,0 -3.998,-1.207 -5.996,-3.623 -1.996,-2.416 -2.996,-4.623 -2.996,-6.621 0,-3.082 1.287,-5.621 3.869,-7.623 -2.08,-2.162 -3.121,-4.369 -3.121,-6.617 0,-2.084 0.643,-3.914 1.936,-5.5 1.291,-1.578 2.977,-2.496 5.059,-2.748 -0.166,-2.662 0.707,-4.496 2.623,-5.496 -0.916,-0.914 -1.373,-2.537 -1.373,-4.869 0,-2.748 0.916,-5.039 2.748,-6.871 1.83,-1.832 4.121,-2.75 6.869,-2.75 3,0 5.457,1.045 7.371,3.125 2.416,-8.244 7.621,-12.367 15.613,-12.367 4.164,0 7.828,1.666 10.994,4.998 1.166,1.248 1.748,1.916 1.748,1.996 -1,0 -0.498,-0.188 1.5,-0.561 1.996,-0.375 3.453,-0.563 4.373,-0.563 3.246,0 6.119,1.207 8.619,3.623 2.164,2.166 3.664,4.912 4.498,8.244 0.58,0.084 1.498,0.332 2.748,0.748 1.83,0.92 2.748,2.498 2.748,4.748 0,0.418 -0.336,1.209 -1,2.373 5.328,2.998 7.994,7.162 7.994,12.492 0,1.498 -0.582,3.584 -1.748,6.247 2.166,1.247 3.246,3.081 3.246,5.495 z m -51.467,5.496 0,-1.623 c 0,-1.914 -0.936,-3.664 -2.809,-5.246 -1.875,-1.582 -3.77,-2.373 -5.684,-2.373 -2.334,0 -4.496,0.541 -6.496,1.621 4.413,-0.248 9.411,2.293 14.989,7.621 z m -2.246,-15.489 c -1.25,-1.418 -2.332,-2.875 -3.25,-4.373 -3.498,0.916 -5.246,1.957 -5.246,3.121 1,-0.08 2.457,0.105 4.371,0.564 1.914,0.459 3.291,0.688 4.125,0.688 z m 7.621,-3.873 0,-5.496 c -2,-0.332 -3.211,-0.5 -3.623,-0.5 l 0,1.873 3.623,4.123 z m 16.238,-3.498 c -1,-0.416 -2.875,-1.25 -5.621,-2.498 l 0,10.742 c 3.912,-2.25 5.785,-4.998 5.621,-8.244 z m 6.867,14.741 -2.746,-3.373 c -1.664,1.167 -3.352,2.354 -5.061,3.561 -1.709,1.207 -3.186,2.563 -4.432,4.06 3.747,-2.002 7.829,-3.414 12.239,-4.248 z"
       inkscape:connector-curvature="0"
       style="fill:#0d0f0f" /></g><g
     id="R"
     transform="translate(-730,-205.002)"><g
       id="g135"><circle
         id="circle137"
         r="50"
         cy="50"
         cx="-160"
         style="fill:#e49977" /></g><path
       id="path139"
       d="m -118.035,66.617 c -3.736,8.912 -11.16,13.367 -22.275,13.367 -2.037,0 -4.246,0.254 -6.621,0.762 -3.564,0.764 -5.346,1.828 -5.346,3.186 0,0.424 0.295,0.91 0.891,1.463 0.592,0.553 1.104,0.826 1.527,0.826 -2.123,0 -0.68,0.064 4.326,0.191 5.008,0.127 8.148,0.191 9.422,0.191 -7.383,4.326 -19.732,6.319 -37.043,5.981 -5.688,-0.084 -10.566,-2.588 -14.639,-7.51 -3.992,-4.669 -5.984,-9.888 -5.984,-15.658 0,-6.108 2.057,-11.308 6.176,-15.595 4.113,-4.282 9.229,-6.427 15.338,-6.427 1.357,0 3.16,0.297 5.41,0.891 2.248,0.594 3.756,0.891 4.518,0.891 3.139,0 7.045,-1.293 11.713,-3.883 4.666,-2.588 6.875,-3.883 6.621,-3.883 -0.85,8.912 -3.82,14.896 -8.914,17.948 -3.648,2.123 -5.473,4.201 -5.473,6.236 0,1.273 0.764,2.293 2.291,3.057 1.188,0.595 2.502,0.892 3.945,0.892 2.207,0 4.371,-1.356 6.494,-4.071 2.119,-2.718 3.055,-5.177 2.801,-7.386 -0.254,-2.545 -0.084,-5.603 0.51,-9.164 0.168,-1.02 0.783,-2.27 1.844,-3.754 1.061,-1.486 2.016,-2.398 2.865,-2.738 0,0.762 -0.275,2.037 -0.828,3.818 -0.553,1.781 -0.826,3.1 -0.826,3.947 0,1.867 0.508,3.309 1.527,4.326 1.525,-0.592 2.883,-2.502 4.074,-5.729 1.016,-2.459 1.609,-4.836 1.781,-7.127 -3.566,-0.17 -6.982,-1.781 -10.248,-4.838 -3.268,-3.057 -4.9,-6.365 -4.9,-9.928 0,-0.594 0.082,-1.188 0.256,-1.783 0.508,0.764 1.271,1.953 2.289,3.564 1.443,2.121 2.547,3.182 3.313,3.182 1.016,0 1.525,-1.061 1.525,-3.182 0,-2.715 -0.723,-5.176 -2.164,-7.383 -1.613,-2.631 -3.693,-3.947 -6.238,-3.947 -1.189,0 -2.971,0.637 -5.344,1.91 -2.379,1.271 -4.543,1.91 -6.492,1.91 -0.596,0 -3.229,-0.766 -7.895,-2.293 8.23,-1.355 12.348,-2.586 12.348,-3.691 0,-2.885 -5.645,-4.838 -16.93,-5.855 -1.105,-0.084 -3.141,-0.254 -6.111,-0.51 0.338,-0.424 2.758,-0.891 7.258,-1.4 3.818,-0.422 6.492,-0.637 8.018,-0.637 20.197,0 33.012,9.805 38.443,29.408 0.934,-0.773 1.402,-2.066 1.402,-3.871 0,-2.324 -0.68,-5.25 -2.037,-8.777 -0.512,-1.375 -1.318,-3.441 -2.42,-6.193 6.957,8.867 10.439,17.27 10.439,25.199 0,4.178 -0.979,7.973 -2.93,11.381 -1.27,2.303 -3.65,5.244 -7.127,8.826 -3.48,3.58 -5.857,6.352 -7.131,8.313 4.668,-1.271 7.725,-2.248 9.168,-2.928 3.223,-1.44 6.15,-3.606 8.783,-6.492 0,1.106 -0.467,2.762 -1.4,4.967 z m -55.502,-50.025 c 0,1.525 -0.85,2.502 -2.545,2.926 l -3.311,0.51 c -1.189,0.594 -2.928,2.928 -5.219,7 -0.256,-1.271 -0.637,-3.053 -1.146,-5.346 -0.764,0.086 -2.035,0.764 -3.818,2.037 -0.764,0.594 -1.996,1.484 -3.693,2.672 0.512,-3.055 2.207,-6.148 5.094,-9.293 3.055,-3.477 6.025,-5.217 8.91,-5.217 3.818,0 5.728,1.572 5.728,4.711 z m 22.15,11.709 c 0,1.443 -0.785,2.654 -2.355,3.629 -1.57,0.977 -3.119,1.465 -4.646,1.465 -2.037,0 -3.863,-1.146 -5.473,-3.438 -1.955,-2.801 -3.947,-4.625 -5.984,-5.477 0.424,-0.422 0.934,-0.635 1.529,-0.635 0.764,0 2.055,0.594 3.881,1.781 1.824,1.189 2.99,1.783 3.502,1.783 0.424,0 1.123,-0.594 2.1,-1.783 0.975,-1.188 2.057,-1.781 3.246,-1.781 2.8,0.001 4.2,1.487 4.2,4.456 z"
       inkscape:connector-curvature="0"
       style="fill:#0d0f0f" /></g><g
     id="B"
     transform="translate(-625,-205)"><g
       id="g141"><circle
         id="circle143"
         r="50"
         cy="49.998001"
         cx="-265"
         style="fill:#bab1ab" /></g><path
       id="path145"
       d="m -224.305,48.619 c 0,5.518 -2.008,9.281 -6.02,11.287 -1.172,0.586 -4.85,1.379 -11.037,2.383 -4.012,0.67 -6.018,2.217 -6.018,4.639 l 0,10.158 c 0,0.422 0.125,1.715 0.375,3.889 l 0.377,4.014 c 0,1.255 -0.293,3.306 -0.879,6.146 -1.588,0.334 -3.428,0.709 -5.518,1.132 -0.67,-2.511 -1.004,-4.224 -1.004,-5.146 0,-0.416 0.105,-1.045 0.313,-1.882 0.207,-0.834 0.316,-1.461 0.316,-1.883 0,-0.58 -0.52,-2.213 -1.559,-4.887 l -1.945,0 c -0.258,0.418 -0.344,0.961 -0.26,1.629 0.334,1.422 0.459,2.633 0.377,3.637 -1.422,1.004 -3.387,2.341 -5.895,4.013 -0.586,-0.166 -0.793,-0.25 -0.629,-0.25 l 0,-8.904 c -0.164,-0.416 -0.584,-0.581 -1.254,-0.502 l -1.504,0 -1.504,11.787 c -1.174,0.084 -2.592,0.084 -4.264,0 -0.588,-2.758 -1.631,-6.853 -3.135,-12.289 l -1.004,0 c -0.922,2.929 -1.422,4.519 -1.506,4.769 0,0.334 0.104,0.981 0.314,1.942 0.207,0.962 0.313,1.609 0.313,1.943 0,0.25 -0.084,0.877 -0.25,1.881 l -0.377,3.01 c -0.168,0.166 -0.377,0.25 -0.627,0.25 -2.508,0 -4.182,-0.627 -5.016,-1.879 -0.836,-1.256 -1.172,-3.012 -1.004,-5.271 l 1.004,-15.047 c 0,-0.252 0.082,-0.586 0.25,-1.004 0.164,-0.418 0.25,-0.711 0.25,-0.877 0,-0.67 -0.711,-2.008 -2.131,-4.014 -0.248,-0.082 -1.549,-0.377 -3.887,-0.879 -1.424,-0.334 -4.225,-0.918 -8.402,-1.756 -5.771,-1.084 -8.654,-5.725 -8.654,-13.92 0,-12.207 5.018,-22.365 15.051,-30.475 0.414,2.258 1.127,5.266 2.129,9.029 0.754,0.17 2.385,0.545 4.891,1.129 0.504,0.168 3.053,1.088 7.652,2.76 -2.344,-1.422 -5.393,-3.719 -9.156,-6.898 -1.422,-1.672 -2.133,-4.471 -2.133,-8.4 0,-0.92 1.59,-2.008 4.768,-3.264 2.84,-1.17 4.975,-1.836 6.396,-2.006 4.514,-0.582 7.984,-0.879 10.41,-0.879 10.449,0 18.891,2.678 25.328,8.029 -2.088,2.426 -5.684,5.014 -10.783,7.773 2.008,0.084 4.934,-0.707 8.779,-2.383 3.844,-1.67 5.475,-2.508 4.891,-2.508 0.668,0 2.008,1.34 4.014,4.014 1.504,2.006 2.715,3.807 3.637,5.391 2.674,4.768 4.471,9.908 5.393,15.426 0,1.926 0.041,3.305 0.125,4.139 l 0,1.004 0.002,0 z m -48.031,2.258 c 0,-3.594 -1.568,-7.002 -4.703,-10.223 -3.137,-3.219 -6.502,-4.826 -10.096,-4.826 -3.178,0 -5.977,1.348 -8.402,4.039 -2.426,2.693 -3.637,5.682 -3.637,8.963 0,2.859 1.379,4.713 4.139,5.553 1.756,0.506 4.219,0.801 7.398,0.883 l 6.898,0 c 5.598,0.084 8.403,-1.379 8.403,-4.389 z m 13.668,15.553 0,-3.889 c -0.584,-1.086 -1.17,-2.215 -1.754,-3.387 -0.502,-1.674 -1.422,-4.014 -2.76,-7.025 l -1.381,14.674 c 0,1.172 -0.25,1.756 -0.752,1.756 -0.334,0 -0.584,-0.082 -0.752,-0.248 -0.586,-8.863 -0.879,-12.709 -0.879,-11.541 l 0,-4.387 c -0.168,-0.254 -0.375,-0.379 -0.625,-0.379 -2.844,2.93 -4.264,7.652 -4.264,14.172 0,3.596 0.33,5.811 1.002,6.648 0.67,-0.166 1.422,-0.459 2.258,-0.877 0.334,-0.168 1.295,-0.252 2.887,-0.252 1.584,0 3.51,0.502 5.766,1.504 0.836,0 1.254,-2.256 1.254,-6.769 z m 28.344,-17.475 c 0,-3.367 -1.254,-6.375 -3.762,-9.025 -2.51,-2.648 -5.395,-3.975 -8.652,-3.975 -3.512,0 -6.795,1.607 -9.846,4.826 -3.053,3.219 -4.578,6.584 -4.578,10.096 0,2.928 1.42,4.389 4.264,4.389 l 14.422,0 c 5.433,-0.082 8.152,-2.186 8.152,-6.311 z"
       inkscape:connector-curvature="0"
       style="fill:#0d0f0f" /></g><g
     id="U"
     transform="translate(-520,-205.002)"><g
       id="g147"><circle
         id="circle149"
         r="50"
         cy="50"
         cx="-370"
         style="fill:#c1d7e9" /></g><path
       id="path151"
       d="m -352.512,83.719 c -4.787,4.871 -10.684,7.307 -17.688,7.307 -7.861,0 -14.098,-2.69 -18.711,-8.073 -4.359,-5.127 -6.537,-11.662 -6.537,-19.606 0,-8.543 3.717,-18.286 11.15,-29.224 6.064,-8.969 13.199,-16.83 21.402,-23.58 -1.197,5.469 -1.793,9.355 -1.793,11.662 0,5.299 1.664,10.467 4.996,15.508 4.102,5.98 7.219,10.426 9.357,13.328 3.332,5.043 4.998,9.955 4.998,14.737 0.002,7.093 -2.391,13.074 -7.174,17.941 z m -0.129,-27.362 c -1.281,-2.861 -2.777,-4.762 -4.486,-5.703 0.256,0.514 0.385,1.24 0.385,2.18 0,1.795 -0.512,4.357 -1.539,7.689 l -1.664,5.127 c 0,2.99 1.492,4.486 4.484,4.486 3.16,0 4.742,-2.095 4.742,-6.281 0,-2.134 -0.64,-4.632 -1.922,-7.498 z"
       inkscape:connector-curvature="0"
       style="fill:#0d0f0f" /></g><g
     id="W"
     transform="translate(-415,-205.002)"><g
       id="g153"><circle
         id="circle155"
         r="50"
         cy="50"
         cx="-475"
         style="fill:#f8f6d8" /></g><path
       id="path157"
       d="m -427.309,57.064 c -6.561,-3.699 -10.768,-5.551 -12.617,-5.551 -1.344,0 -2.395,1.032 -3.154,3.092 -0.758,2.063 -2.27,3.09 -4.541,3.09 -0.926,0 -2.818,-0.336 -5.678,-1.008 -1.598,2.44 -2.398,3.996 -2.398,4.668 0,0.926 0.689,2.016 2.064,3.281 1.375,1.262 2.535,1.891 3.482,1.891 0.602,0 1.416,-0.125 2.449,-0.379 1.031,-0.25 1.721,-0.377 2.064,-0.377 1.033,0 1.547,1.893 1.547,5.678 0,3.617 -0.84,9.168 -2.523,16.654 -2.188,-8.58 -4.5,-12.871 -6.938,-12.871 -0.338,0 -1.031,0.252 -2.082,0.76 -1.053,0.502 -1.83,0.754 -2.334,0.754 -2.438,0 -4.625,-2.227 -6.561,-6.688 -3.869,0.59 -5.805,2.567 -5.805,5.934 0,1.684 0.777,3.027 2.336,4.035 1.553,1.008 2.334,1.727 2.334,2.145 0,2.273 -3.324,5.764 -9.969,10.473 -3.531,2.523 -5.973,4.289 -7.316,5.297 1.174,-1.512 2.352,-3.487 3.533,-5.928 1.344,-2.775 2.018,-4.92 2.018,-6.436 0,-0.84 -0.967,-2.02 -2.902,-3.533 -1.936,-1.512 -2.9,-3.111 -2.9,-4.793 0,-1.428 0.502,-3.193 1.512,-5.299 -1.094,-1.262 -2.395,-1.895 -3.91,-1.895 -3.365,0 -5.045,1.096 -5.045,3.28 0,-1.514 0,-0.379 0,3.406 0.082,2.776 -2.02,4.164 -6.311,4.164 -3.279,0 -8.791,-0.759 -16.527,-2.271 8.748,-2.188 13.121,-4.711 13.121,-7.57 0,0.336 -0.168,-0.672 -0.504,-3.028 -0.338,-2.604 1.514,-4.961 5.551,-7.063 -0.758,-3.867 -2.773,-5.806 -6.057,-5.806 -0.504,0 -1.432,0.884 -2.775,2.647 -1.346,1.771 -2.607,2.652 -3.783,2.652 -2.02,0 -4.629,-2.186 -7.822,-6.563 -1.516,-2.184 -3.83,-5.424 -6.941,-9.715 1.934,1.012 3.869,2.02 5.805,3.031 2.523,1.176 4.541,1.766 6.057,1.766 1.178,0 2.334,-1.031 3.469,-3.092 1.135,-2.061 2.629,-3.092 4.479,-3.092 0.254,0 1.936,0.504 5.047,1.516 1.596,-2.439 2.398,-4.248 2.398,-5.426 0,-1.01 -0.611,-2.166 -1.83,-3.471 -1.221,-1.303 -2.334,-1.955 -3.344,-1.955 -0.422,0 -1.072,0.125 -1.957,0.379 -0.881,0.252 -1.533,0.379 -1.953,0.379 -1.516,0 -2.273,-1.893 -2.273,-5.678 0,-1.01 0.969,-6.77 2.904,-17.285 -0.086,1.26 0.461,3.617 1.639,7.064 1.43,4.207 3.111,6.309 5.049,6.309 0.334,0 1.008,-0.252 2.018,-0.758 1.008,-0.504 1.807,-0.754 2.396,-0.754 1.934,0 3.531,1.094 4.795,3.277 l 1.893,3.406 c 1.766,0 3.238,-0.629 4.414,-1.891 1.178,-1.262 1.768,-2.777 1.768,-4.543 0,-1.85 -0.777,-3.26 -2.334,-4.227 -1.559,-0.967 -2.336,-1.703 -2.336,-2.207 0,-1.768 2.777,-4.752 8.328,-8.958 4.457,-3.363 7.359,-5.34 8.707,-5.93 -3.617,4.879 -5.426,8.451 -5.426,10.724 0,1.178 0.713,2.441 2.145,3.785 1.766,1.598 2.775,2.734 3.027,3.406 0.84,1.938 0.756,4.586 -0.252,7.949 2.271,1.6 3.994,2.396 5.174,2.396 2.436,0 3.658,-1.264 3.658,-3.785 0,-0.252 -0.105,-1.051 -0.314,-2.396 -0.213,-1.344 -0.273,-2.102 -0.191,-2.271 0.336,-1.178 2.65,-1.768 6.939,-1.768 2.691,0 8.283,0.758 16.781,2.273 -1.852,0.504 -4.627,1.26 -8.326,2.27 -3.365,1.01 -5.049,2.145 -5.049,3.406 0,0.59 0.209,1.598 0.631,3.027 0.42,1.432 0.633,2.48 0.633,3.156 0,1.176 -0.758,2.27 -2.271,3.277 l -4.291,3.031 c 1.01,1.852 1.682,2.945 2.02,3.279 0.84,1.008 1.975,1.514 3.406,1.514 1.01,0 1.934,-0.883 2.775,-2.648 0.84,-1.768 2.188,-2.65 4.037,-2.65 2.27,0 4.838,2.104 7.697,6.311 1.593,2.36 4.075,5.933 7.44,10.727 z m -28.007,-7.316 c 0,-5.381 -1.979,-10.051 -5.932,-14.006 -3.953,-3.953 -8.621,-5.93 -14.004,-5.93 -5.469,0 -10.18,1.957 -14.131,5.869 -3.953,3.91 -5.973,8.6 -6.055,14.066 -0.086,5.383 1.912,10.03 5.992,13.938 4.08,3.912 8.811,5.869 14.193,5.869 5.719,0 10.492,-1.873 14.318,-5.615 3.83,-3.74 5.701,-8.47 5.619,-14.191 z m -1.893,0 c 0,5.131 -1.725,9.381 -5.174,12.74 -3.451,3.367 -7.74,5.049 -12.869,5.049 -4.963,0 -9.211,-1.723 -12.742,-5.174 -3.531,-3.445 -5.299,-7.652 -5.299,-12.615 0,-4.877 1.785,-9.064 5.359,-12.553 3.578,-3.49 7.803,-5.238 12.682,-5.238 4.877,0 9.104,1.766 12.68,5.301 3.574,3.533 5.363,7.695 5.363,12.49 z"
       inkscape:connector-curvature="0"
       style="fill:#0d0f0f" /></g><g
     id="X"
     transform="translate(-100,-205.002)"><g
       id="g159"><path
         id="path161"
         d="M -740,49.998 C -740,77.613 -762.383,100 -790,100 -817.613,100 -840,77.613 -840,49.998 -840,22.385 -817.613,0 -790,0 c 27.617,0 50,22.385 50,49.998 z"
         inkscape:connector-curvature="0"
         style="fill:#cac5c0" /></g><g
       id="g163"><path
         id="path165"
         d="m -783.359,80 0,-3.297 c 4.703,-0.521 7.059,-1.887 7.059,-4.082 0,-1.582 -0.629,-3.164 -1.883,-4.746 l -13.008,-16.01 -10.273,12.111 c -2.57,2.973 -3.863,5.432 -3.863,7.354 0,2.976 2.354,4.771 7.07,5.387 l 0,3.283 -25.051,0 0,-3.287 c 3.172,-0.609 5.867,-1.752 8.102,-3.416 1.539,-1.223 3.637,-3.371 6.285,-6.438 l 15.449,-17.915 -17.867,-21.66 c -2.315,-2.797 -4.121,-4.633 -5.401,-5.51 -1.724,-1.225 -4.121,-2.012 -7.203,-2.361 l 0,-3.413 29.539,0 0,3.285 c -4.453,0.877 -6.676,2.234 -6.676,4.074 0,1.23 0.594,2.586 1.793,4.072 l 11.816,14.322 9.508,-11.691 c 1.711,-2.104 2.57,-3.941 2.57,-5.52 0,-2.629 -2.105,-4.34 -6.301,-5.129 l 0,-3.413 23.512,0 0,3.291 c -2.055,0.439 -3.473,0.834 -4.23,1.188 -2.57,1.229 -6.496,4.869 -11.797,10.92 -0.852,0.969 -4.453,5.393 -10.789,13.285 l 18.977,23.363 c 4.113,5.078 8.305,7.971 12.586,8.666 l 0,3.287 -29.924,0 z"
         inkscape:connector-curvature="0"
         style="fill:#0d0f0f" /></g></g><g
     id="Y"
     transform="translate(-205,-205.002)"><g
       id="g465"><path
         d="M -635,49.998 C -635,77.611 -657.383,100 -685,100 -712.613,100 -735,77.613 -735,49.999 -735,22.384 -712.613,0 -685,0 c 27.617,0 50,22.384 50,49.998 z"
         id="path467"
         inkscape:connector-curvature="0"
         style="fill:#c9c4be" /></g><g
       id="g469"><path
         d="m -680.09,65.695 c 0,3.988 0.654,6.793 1.963,8.414 1.309,1.621 3.521,2.431 6.639,2.431 l 0.748,-0.095 0,3.555 -28.796,0 0,-3.553 0.934,0 c 3.117,0.063 5.33,-0.717 6.639,-2.338 1.309,-1.619 1.963,-4.394 1.963,-8.319 l 0,-12.53 -18.325,-26.833 c -0.748,-0.997 -1.402,-1.87 -1.964,-2.618 -0.561,-0.748 -1.091,-1.339 -1.589,-1.776 -0.811,-0.686 -1.668,-1.169 -2.571,-1.45 -0.904,-0.281 -2.073,-0.514 -3.506,-0.701 l 0,-3.647 27.955,0 0,3.553 c -2.805,0.25 -4.708,0.64 -5.703,1.168 -0.998,0.53 -1.496,1.512 -1.496,2.945 0,0.624 0.124,1.248 0.373,1.87 0.249,0.624 0.592,1.278 1.029,1.963 l 14.212,20.569 10.378,-15.24 c 0.996,-1.371 1.713,-2.555 2.15,-3.553 0.435,-0.996 0.715,-1.931 0.841,-2.804 0,-0.125 0,-0.249 0,-0.374 0,-0.125 0,-0.249 0,-0.375 0,-1.931 -0.53,-3.366 -1.589,-4.3 -1.06,-0.936 -2.899,-1.527 -5.516,-1.776 l 0,-3.647 23.093,0 0,3.553 c -0.748,0.125 -1.435,0.296 -2.056,0.514 -0.624,0.219 -1.216,0.515 -1.777,0.889 -0.998,0.561 -2.026,1.449 -3.085,2.665 -1.061,1.215 -2.337,2.915 -3.833,5.096 l -17.11,24.309 0,12.436 -10e-4,0 z"
         id="path471"
         inkscape:connector-curvature="0"
         style="fill:#0d0f0f" /></g></g><g
     id="Z"
     transform="translate(-310,-205.002)"><g
       id="g475"><path
         d="M -530,49.998 C -530,77.613 -552.384,100 -580,100 -607.613,100 -630,77.613 -630,49.998 -630,22.385 -607.613,0 -580,0 c 27.616,0 50,22.385 50,49.998 z"
         id="path477"
         inkscape:connector-curvature="0"
         style="fill:#c9c4be" /></g><g
       id="g479"><path
         d="m -555.645,79.999 -53.76,0 0,-2.711 42.635,-57.22 -18.979,0 c -3.118,0.063 -5.517,0.391 -7.2,0.981 -1.683,0.594 -3.242,1.73 -4.675,3.413 -0.125,0.126 -0.233,0.25 -0.327,0.374 -0.093,0.126 -0.203,0.25 -0.327,0.373 -0.25,0.375 -0.483,0.702 -0.702,0.982 -0.219,0.28 -0.42,0.577 -0.607,0.889 -0.063,0.188 -0.156,0.374 -0.28,0.561 -0.125,0.188 -0.25,0.375 -0.374,0.562 -0.126,0.374 -0.281,0.765 -0.467,1.168 -0.188,0.406 -0.407,0.889 -0.654,1.449 l -3.367,-0.094 0,-14.491 51.049,0 0,2.524 -43.007,57.406 18.605,0 c 2.805,0.063 5.033,0 6.685,-0.188 1.65,-0.187 3.193,-0.59 4.628,-1.213 0.187,-0.063 0.358,-0.125 0.514,-0.188 0.156,-0.063 0.295,-0.124 0.421,-0.188 0.873,-0.436 1.714,-0.935 2.524,-1.496 0.809,-0.561 1.62,-1.215 2.431,-1.963 0.561,-0.562 1.122,-1.168 1.683,-1.822 0.561,-0.655 1.153,-1.388 1.777,-2.197 l 2.431,-3.461 3.552,0 -4.209,16.55 z"
         id="path481"
         inkscape:connector-curvature="0"
         style="fill:#0d0f0f" /></g></g><g
     id="S"
     transform="translate(-940.001,-205.002)"><circle
       cx="50.000999"
       cy="50"
       r="50"
       id="circle485"
       style="fill:#c9c4be" /><g
       id="g487"><polygon
         points="77.833,80.105 75.479,76.027 92.334,74.439 85.279,59.05 89.99,59.05 92.203,55.318 100,50 92.203,44.681 89.99,40.95 85.279,40.95 92.333,25.559 75.479,23.973 77.833,19.893 75.707,16.111 75,6.699 66.496,10.792 62.158,10.843 59.803,14.922 50,1.118 40.198,14.922 37.843,10.843 33.505,10.792 25,6.699 24.293,16.111 22.168,19.893 24.523,23.973 7.667,25.56 14.722,40.95 10.011,40.95 7.798,44.682 0,50 7.797,55.318 10.011,59.05 14.722,59.05 7.668,74.441 24.523,76.027 22.168,80.105 24.293,83.889 25.001,93.303 33.505,89.209 37.843,89.157 40.198,85.077 50.001,98.881 59.803,85.077 62.158,89.157 66.496,89.208 75.001,93.303 75.708,83.891 "
         id="polygon489"
         style="fill:#0d0f0f" /><polygon
         points="55.088,52.938 83.717,52.023 87.223,54.048 90.727,52.025 90.727,47.976 87.223,45.953 83.717,47.976 55.088,47.063 68.611,21.813 72.117,19.789 72.117,15.743 68.611,13.719 65.107,15.742 65.105,19.789 50.001,44.125 34.896,19.789 34.895,15.741 31.392,13.718 27.885,15.743 27.885,19.789 31.391,21.813 44.913,47.063 16.285,47.976 12.778,45.953 9.275,47.975 9.275,52.023 12.778,54.047 16.285,52.023 44.913,52.938 31.39,78.188 27.885,80.211 27.884,84.258 31.39,86.281 34.895,84.258 34.895,80.211 50,55.875 65.105,80.211 65.105,84.259 68.609,86.282 72.116,84.258 72.116,80.212 68.609,78.188 "
         id="polygon491"
         style="fill:#ffffff" /></g><polygon
       points="57.051,22.393 50.001,34.681 42.951,22.393 50.001,10.104 "
       id="polygon493"
       style="fill:#ffffff" /><polygon
       points="29.617,30.09 36.734,42.34 22.567,42.301 15.45,30.052 "
       id="polygon495"
       style="fill:#ffffff" /><polygon
       points="22.566,57.697 36.733,57.659 29.616,69.908 15.449,69.947 "
       id="polygon497"
       style="fill:#ffffff" /><polygon
       points="42.949,77.607 50,65.318 57.05,77.607 50,89.896 "
       id="polygon499"
       style="fill:#ffffff" /><polygon
       points="70.384,69.91 63.268,57.66 77.434,57.699 84.551,69.947 "
       id="polygon501"
       style="fill:#ffffff" /><polygon
       points="77.436,42.303 63.268,42.341 70.385,30.092 84.551,30.053 "
       id="polygon503"
       style="fill:#ffffff" /></g></svg>