# Blender v2.72 (sub 0) OBJ File: 'coin2.blend'
# www.blender.org
mtllib coin.mtl
o Coin05
v 0.000000 0.000000 -0.105966
v 0.374186 -0.383350 -0.105966
v 0.441785 -0.302983 -0.105966
v 0.492405 -0.210974 -0.105966
v 0.524103 -0.110857 -0.105966
v 0.535659 -0.006479 -0.105966
v 0.526631 0.098147 -0.105966
v 0.497364 0.199002 -0.105966
v 0.448984 0.292209 -0.105966
v 0.383350 0.374186 -0.105966
v 0.302984 0.441784 -0.105966
v 0.210974 0.492405 -0.105966
v 0.110857 0.524103 -0.105966
v 0.006479 0.535659 -0.105966
v -0.098148 0.526631 -0.105966
v -0.199002 0.497364 -0.105966
v -0.292209 0.448984 -0.105966
v -0.374187 0.383350 -0.105966
v -0.441784 0.302983 -0.105966
v -0.492405 0.210974 -0.105966
v -0.524103 0.110857 -0.105966
v -0.535659 0.006479 -0.105966
v -0.526631 -0.098147 -0.105966
v -0.497364 -0.199001 -0.105966
v -0.448984 -0.292209 -0.105966
v -0.383349 -0.374187 -0.105966
v -0.302984 -0.441784 -0.105966
v -0.210974 -0.492405 -0.105966
v -0.110857 -0.524102 -0.105966
v -0.006479 -0.535659 -0.105966
v 0.098147 -0.526630 -0.105966
v 0.199002 -0.497364 -0.105966
v 0.292209 -0.448983 -0.105966
v 0.374186 -0.383350 -0.057674
v 0.441785 -0.302984 -0.057674
v 0.492405 -0.210974 -0.057674
v 0.524103 -0.110857 -0.057674
v 0.535659 -0.006479 -0.057674
v 0.526631 0.098147 -0.057674
v 0.497364 0.199002 -0.057674
v 0.448984 0.292209 -0.057674
v 0.383350 0.374186 -0.057674
v 0.302984 0.441785 -0.057674
v 0.210974 0.492405 -0.057674
v 0.110857 0.524102 -0.057674
v 0.006479 0.535659 -0.057674
v -0.098147 0.526631 -0.057674
v -0.199002 0.497364 -0.057674
v -0.292209 0.448984 -0.057674
v -0.374186 0.383349 -0.057674
v -0.441784 0.302983 -0.057674
v -0.492405 0.210974 -0.057674
v -0.524103 0.110857 -0.057674
v -0.535659 0.006479 -0.057674
v -0.526630 -0.098148 -0.057674
v -0.497364 -0.199002 -0.057674
v -0.448983 -0.292209 -0.057674
v -0.383349 -0.374187 -0.057674
v -0.302983 -0.441785 -0.057674
v -0.210974 -0.492405 -0.057674
v -0.110857 -0.524103 -0.057674
v -0.006479 -0.535659 -0.057674
v 0.098147 -0.526631 -0.057674
v 0.199002 -0.497364 -0.057674
v 0.292209 -0.448984 -0.057674
v 0.000000 -0.000000 -0.057674
vt 0.249985 0.500028
vt 0.444069 0.818625
vt 0.409265 0.888240
vt 0.471413 0.736767
vt 0.490249 0.645811
vt 0.499851 0.549253
vt 0.499851 0.450803
vt 0.490249 0.354244
vt 0.471413 0.263288
vt 0.444069 0.181430
vt 0.409265 0.111816
vt 0.368341 0.057120
vt 0.322868 0.019445
vt 0.274595 0.000238
vt 0.225375 0.000238
vt 0.177102 0.019445
vt 0.131629 0.057120
vt 0.090705 0.111815
vt 0.055901 0.181430
vt 0.028556 0.263288
vt 0.009721 0.354245
vt 0.000119 0.450804
vt 0.000119 0.549254
vt 0.009721 0.645811
vt 0.028557 0.736768
vt 0.055902 0.818626
vt 0.090705 0.888240
vt 0.131629 0.942936
vt 0.177102 0.980611
vt 0.225376 0.999818
vt 0.274595 0.999817
vt 0.322868 0.980610
vt 0.368341 0.942935
vt 0.733675 0.839797
vt 0.737618 0.794525
vt 0.733675 0.794525
vt 0.737618 0.839798
vt 0.729909 0.839796
vt 0.725967 0.794523
vt 0.729909 0.794523
vt 0.725967 0.839796
vt 0.722024 0.794524
vt 0.722024 0.839797
vt 0.718082 0.794525
vt 0.718082 0.839798
vt 0.714139 0.794526
vt 0.714139 0.839798
vt 0.710197 0.794526
vt 0.710197 0.839799
vt 0.706254 0.794527
vt 0.706254 0.839800
vt 0.737676 0.794528
vt 0.737676 0.839801
vt 0.729791 0.794529
vt 0.729791 0.839802
vt 0.725849 0.794529
vt 0.725849 0.839802
vt 0.721907 0.794530
vt 0.721907 0.839803
vt 0.717964 0.794530
vt 0.717964 0.839803
vt 0.714022 0.794530
vt 0.714022 0.839803
vt 0.710079 0.794531
vt 0.710079 0.839803
vt 0.705960 0.794531
vt 0.705960 0.839804
vt 0.709903 0.794531
vt 0.709903 0.839804
vt 0.713845 0.794531
vt 0.713845 0.839803
vt 0.717788 0.794530
vt 0.717788 0.839803
vt 0.721730 0.794530
vt 0.721730 0.839803
vt 0.725673 0.794530
vt 0.725673 0.839802
vt 0.729615 0.794529
vt 0.729615 0.839802
vt 0.733557 0.794529
vt 0.733557 0.839802
vt 0.737500 0.794528
vt 0.737500 0.839801
vt 0.706078 0.794527
vt 0.706078 0.839800
vt 0.710020 0.794527
vt 0.710020 0.839800
vt 0.717905 0.794526
vt 0.717905 0.839799
vt 0.721848 0.794525
vt 0.721848 0.839798
vt 0.729733 0.794525
vt 0.729733 0.839798
vt 0.749955 0.500027
vt 0.631600 0.057119
vt 0.677073 0.019444
vt 0.725346 0.000238
vt 0.774565 0.000238
vt 0.822839 0.019445
vt 0.868311 0.057120
vt 0.909236 0.111817
vt 0.944039 0.181432
vt 0.971384 0.263290
vt 0.990219 0.354245
vt 0.999821 0.450804
vt 0.999821 0.549253
vt 0.990219 0.645811
vt 0.971383 0.736768
vt 0.944038 0.818626
vt 0.909235 0.888240
vt 0.868311 0.942935
vt 0.822837 0.980610
vt 0.774564 0.999817
vt 0.725345 0.999817
vt 0.677071 0.980610
vt 0.631598 0.942934
vt 0.590674 0.888238
vt 0.555871 0.818623
vt 0.528526 0.736765
vt 0.509691 0.645809
vt 0.500089 0.549250
vt 0.500089 0.450800
vt 0.509691 0.354242
vt 0.528527 0.263287
vt 0.555872 0.181429
vt 0.590675 0.111814
vn 0.000000 0.000000 -1.000000
vn 0.765300 -0.643700 0.000000
vn 0.876200 -0.482000 -0.000000
vn 0.953400 -0.301800 0.000000
vn 0.993900 -0.110000 0.000000
vn 0.996300 0.086000 0.000000
vn 0.960400 0.278700 0.000000
vn 0.887600 0.460700 0.000000
vn 0.780600 0.625000 0.000000
vn 0.643700 0.765300 0.000000
vn 0.482000 0.876200 -0.000000
vn 0.301800 0.953400 0.000000
vn 0.110000 0.993900 0.000000
vn -0.086000 0.996300 0.000000
vn -0.278700 0.960400 0.000000
vn -0.460700 0.887600 0.000000
vn -0.625000 0.780600 0.000000
vn -0.765300 0.643700 0.000000
vn -0.876200 0.482000 0.000000
vn -0.953400 0.301800 0.000000
vn -0.993900 0.110000 0.000000
vn -0.996300 -0.086000 0.000000
vn -0.960400 -0.278700 0.000000
vn -0.887600 -0.460700 -0.000000
vn -0.780600 -0.625000 0.000000
vn -0.643700 -0.765300 0.000000
vn -0.482000 -0.876200 -0.000000
vn -0.301800 -0.953400 0.000000
vn -0.110000 -0.993900 -0.000000
vn 0.086000 -0.996300 -0.000000
vn 0.278700 -0.960400 -0.000000
vn 0.460700 -0.887600 -0.000000
vn 0.625000 -0.780600 -0.000000
vn -0.000000 0.000000 1.000000
usemtl 14_-_Default
s off
f 1/1/1 3/2/1 2/3/1
f 1/1/1 4/4/1 3/2/1
f 1/1/1 5/5/1 4/4/1
f 1/1/1 6/6/1 5/5/1
f 1/1/1 7/7/1 6/6/1
f 1/1/1 8/8/1 7/7/1
f 1/1/1 9/9/1 8/8/1
f 1/1/1 10/10/1 9/9/1
f 1/1/1 11/11/1 10/10/1
f 1/1/1 12/12/1 11/11/1
f 1/1/1 13/13/1 12/12/1
f 1/1/1 14/14/1 13/13/1
f 1/1/1 15/15/1 14/14/1
f 1/1/1 16/16/1 15/15/1
f 1/1/1 17/17/1 16/16/1
f 1/1/1 18/18/1 17/17/1
f 1/1/1 19/19/1 18/18/1
f 1/1/1 20/20/1 19/19/1
f 1/1/1 21/21/1 20/20/1
f 1/1/1 22/22/1 21/21/1
f 1/1/1 23/23/1 22/22/1
f 1/1/1 24/24/1 23/23/1
f 1/1/1 25/25/1 24/24/1
f 1/1/1 26/26/1 25/25/1
f 1/1/1 27/27/1 26/26/1
f 1/1/1 28/28/1 27/27/1
f 1/1/1 29/29/1 28/28/1
f 1/1/1 30/30/1 29/29/1
f 1/1/1 31/31/1 30/30/1
f 1/1/1 32/32/1 31/31/1
f 1/1/1 33/33/1 32/32/1
f 1/1/1 2/3/1 33/33/1
f 2/34/2 35/35/2 34/36/2
f 2/34/2 3/37/2 35/35/2
f 3/38/3 36/39/3 35/40/3
f 3/38/3 4/41/3 36/39/3
f 4/41/4 37/42/4 36/39/4
f 4/41/4 5/43/4 37/42/4
f 5/43/5 38/44/5 37/42/5
f 5/43/5 6/45/5 38/44/5
f 6/45/6 39/46/6 38/44/6
f 6/45/6 7/47/6 39/46/6
f 7/47/7 40/48/7 39/46/7
f 7/47/7 8/49/7 40/48/7
f 8/49/8 41/50/8 40/48/8
f 8/49/8 9/51/8 41/50/8
f 9/51/9 42/52/9 41/50/9
f 9/51/9 10/53/9 42/52/9
f 10/53/10 43/36/10 42/52/10
f 10/53/10 11/34/10 43/36/10
f 11/34/11 44/54/11 43/36/11
f 11/34/11 12/55/11 44/54/11
f 12/55/12 45/56/12 44/54/12
f 12/55/12 13/57/12 45/56/12
f 13/57/13 46/58/13 45/56/13
f 13/57/13 14/59/13 46/58/13
f 14/59/14 47/60/14 46/58/14
f 14/59/14 15/61/14 47/60/14
f 15/61/15 48/62/15 47/60/15
f 15/61/15 16/63/15 48/62/15
f 16/63/16 49/64/16 48/62/16
f 16/63/16 17/65/16 49/64/16
f 17/65/17 50/66/17 49/64/17
f 17/65/17 18/67/17 50/66/17
f 18/67/18 51/68/18 50/66/18
f 18/67/18 19/69/18 51/68/18
f 19/69/19 52/70/19 51/68/19
f 19/69/19 20/71/19 52/70/19
f 20/71/20 53/72/20 52/70/20
f 20/71/20 21/73/20 53/72/20
f 21/73/21 54/74/21 53/72/21
f 21/73/21 22/75/21 54/74/21
f 22/75/22 55/76/22 54/74/22
f 22/75/22 23/77/22 55/76/22
f 23/77/23 56/78/23 55/76/23
f 23/77/23 24/79/23 56/78/23
f 24/79/24 57/80/24 56/78/24
f 24/79/24 25/81/24 57/80/24
f 25/81/25 58/82/25 57/80/25
f 25/81/25 26/83/25 58/82/25
f 26/83/26 59/84/26 58/82/26
f 26/83/26 27/85/26 59/84/26
f 27/85/27 60/86/27 59/84/27
f 27/85/27 28/87/27 60/86/27
f 28/87/28 61/62/28 60/86/28
f 28/87/28 29/63/28 61/62/28
f 29/63/29 62/88/29 61/62/29
f 29/63/29 30/89/29 62/88/29
f 30/89/30 63/90/30 62/88/30
f 30/89/30 31/91/30 63/90/30
f 31/91/31 64/56/31 63/90/31
f 31/91/31 32/57/31 64/56/31
f 32/57/32 65/92/32 64/56/32
f 32/57/32 33/93/32 65/92/32
f 33/93/33 34/36/33 65/92/33
f 33/93/33 2/34/33 34/36/33
f 66/94/34 34/95/34 35/96/34
f 66/94/34 35/96/34 36/97/34
f 66/94/34 36/97/34 37/98/34
f 66/94/34 37/98/34 38/99/34
f 66/94/34 38/99/34 39/100/34
f 66/94/34 39/100/34 40/101/34
f 66/94/34 40/101/34 41/102/34
f 66/94/34 41/102/34 42/103/34
f 66/94/34 42/103/34 43/104/34
f 66/94/34 43/104/34 44/105/34
f 66/94/34 44/105/34 45/106/34
f 66/94/34 45/106/34 46/107/34
f 66/94/34 46/107/34 47/108/34
f 66/94/34 47/108/34 48/109/34
f 66/94/34 48/109/34 49/110/34
f 66/94/34 49/110/34 50/111/34
f 66/94/34 50/111/34 51/112/34
f 66/94/34 51/112/34 52/113/34
f 66/94/34 52/113/34 53/114/34
f 66/94/34 53/114/34 54/115/34
f 66/94/34 54/115/34 55/116/34
f 66/94/34 55/116/34 56/117/34
f 66/94/34 56/117/34 57/118/34
f 66/94/34 57/118/34 58/119/34
f 66/94/34 58/119/34 59/120/34
f 66/94/34 59/120/34 60/121/34
f 66/94/34 60/121/34 61/122/34
f 66/94/34 61/122/34 62/123/34
f 66/94/34 62/123/34 63/124/34
f 66/94/34 63/124/34 64/125/34
f 66/94/34 64/125/34 65/126/34
f 66/94/34 65/126/34 34/95/34
